<mxfile host="app.diagrams.net" modified="2023-07-13T19:05:38.503Z" agent="Mozilla/5.0 (Windows NT 10.0; Win64; x64) AppleWebKit/537.36 (KHTML, like Gecko) Chrome/114.0.0.0 Safari/537.36" etag="ugwcdQpVYbIBzVsyi2Y_" version="21.5.2" type="github">
  <diagram name="Page-1" id="nJFAbcdQP1W4Cs7JYR5H">
    <mxGraphModel dx="1434" dy="760" grid="1" gridSize="10" guides="1" tooltips="1" connect="1" arrows="1" fold="1" page="1" pageScale="1" pageWidth="827" pageHeight="1169" math="0" shadow="0">
      <root>
        <mxCell id="0" />
        <mxCell id="1" parent="0" />
        <mxCell id="j0LwuNYNktJyDUv_yIwR-1" value="Actor" style="shape=umlActor;verticalLabelPosition=bottom;verticalAlign=top;html=1;outlineConnect=0;" parent="1" vertex="1">
          <mxGeometry x="205" y="150" width="30" height="60" as="geometry" />
        </mxCell>
        <mxCell id="j0LwuNYNktJyDUv_yIwR-2" value="&lt;font style=&quot;font-size: 36px;&quot;&gt;Savetoshi&lt;/font&gt;" style="rounded=0;whiteSpace=wrap;html=1;" parent="1" vertex="1">
          <mxGeometry x="70" y="340" width="300" height="120" as="geometry" />
        </mxCell>
        <mxCell id="j0LwuNYNktJyDUv_yIwR-9" value="" style="endArrow=classic;html=1;rounded=0;exitX=0.4;exitY=1.017;exitDx=0;exitDy=0;exitPerimeter=0;entryX=1;entryY=0.5;entryDx=0;entryDy=0;" parent="1" target="j0LwuNYNktJyDUv_yIwR-2" edge="1">
          <mxGeometry width="50" height="50" relative="1" as="geometry">
            <mxPoint x="518" y="311.02" as="sourcePoint" />
            <mxPoint x="440" y="380" as="targetPoint" />
          </mxGeometry>
        </mxCell>
        <mxCell id="j0LwuNYNktJyDUv_yIwR-10" value="Send to the person to accept" style="text;html=1;strokeColor=none;fillColor=none;align=center;verticalAlign=middle;whiteSpace=wrap;rounded=0;" parent="1" vertex="1">
          <mxGeometry x="320" y="180" width="60" height="30" as="geometry" />
        </mxCell>
        <mxCell id="j0LwuNYNktJyDUv_yIwR-12" value="Custodian" style="rounded=0;whiteSpace=wrap;html=1;" parent="1" vertex="1">
          <mxGeometry x="160" y="620" width="120" height="60" as="geometry" />
        </mxCell>
        <mxCell id="j0LwuNYNktJyDUv_yIwR-13" value="" style="endArrow=none;dashed=1;html=1;dashPattern=1 3;strokeWidth=2;rounded=0;" parent="1" edge="1">
          <mxGeometry width="50" height="50" relative="1" as="geometry">
            <mxPoint x="10" y="550" as="sourcePoint" />
            <mxPoint x="830" y="550" as="targetPoint" />
          </mxGeometry>
        </mxCell>
        <mxCell id="j0LwuNYNktJyDUv_yIwR-15" value="View Balance" style="text;html=1;strokeColor=none;fillColor=none;align=center;verticalAlign=middle;whiteSpace=wrap;rounded=0;" parent="1" vertex="1">
          <mxGeometry x="80" y="350" width="60" height="30" as="geometry" />
        </mxCell>
        <mxCell id="j0LwuNYNktJyDUv_yIwR-16" value="Buy Bitcoin" style="text;html=1;strokeColor=none;fillColor=none;align=center;verticalAlign=middle;whiteSpace=wrap;rounded=0;" parent="1" vertex="1">
          <mxGeometry x="160" y="350" width="60" height="30" as="geometry" />
        </mxCell>
        <mxCell id="j0LwuNYNktJyDUv_yIwR-17" value="Withdraw" style="text;html=1;strokeColor=none;fillColor=none;align=center;verticalAlign=middle;whiteSpace=wrap;rounded=0;" parent="1" vertex="1">
          <mxGeometry x="235" y="350" width="60" height="30" as="geometry" />
        </mxCell>
        <mxCell id="j0LwuNYNktJyDUv_yIwR-20" value="" style="endArrow=classic;startArrow=classic;html=1;rounded=0;exitX=0.5;exitY=0;exitDx=0;exitDy=0;entryX=0.5;entryY=1;entryDx=0;entryDy=0;" parent="1" source="j0LwuNYNktJyDUv_yIwR-12" target="j0LwuNYNktJyDUv_yIwR-2" edge="1">
          <mxGeometry width="50" height="50" relative="1" as="geometry">
            <mxPoint x="170" y="510" as="sourcePoint" />
            <mxPoint x="230" y="490" as="targetPoint" />
          </mxGeometry>
        </mxCell>
        <mxCell id="BtNnuzzpziHM5bAmL9q4-1" value="Actor" style="shape=umlActor;verticalLabelPosition=bottom;verticalAlign=top;html=1;outlineConnect=0;" vertex="1" parent="1">
          <mxGeometry x="670" y="470" width="30" height="60" as="geometry" />
        </mxCell>
        <mxCell id="BtNnuzzpziHM5bAmL9q4-5" value="accept bitcoin create account&amp;nbsp;" style="text;html=1;strokeColor=none;fillColor=none;align=center;verticalAlign=middle;whiteSpace=wrap;rounded=0;" vertex="1" parent="1">
          <mxGeometry x="620" y="350" width="60" height="30" as="geometry" />
        </mxCell>
        <mxCell id="BtNnuzzpziHM5bAmL9q4-6" value="Create the gift" style="text;html=1;strokeColor=none;fillColor=none;align=center;verticalAlign=middle;whiteSpace=wrap;rounded=0;" vertex="1" parent="1">
          <mxGeometry x="175" y="90" width="60" height="30" as="geometry" />
        </mxCell>
        <mxCell id="BtNnuzzpziHM5bAmL9q4-7" value="Receive the gift" style="text;html=1;strokeColor=none;fillColor=none;align=center;verticalAlign=middle;whiteSpace=wrap;rounded=0;" vertex="1" parent="1">
          <mxGeometry x="710" y="470" width="60" height="30" as="geometry" />
        </mxCell>
        <mxCell id="BtNnuzzpziHM5bAmL9q4-8" value="" style="endArrow=classic;html=1;rounded=0;entryX=0.933;entryY=1.033;entryDx=0;entryDy=0;entryPerimeter=0;exitX=0.5;exitY=0;exitDx=0;exitDy=0;exitPerimeter=0;" edge="1" parent="1" source="BtNnuzzpziHM5bAmL9q4-1">
          <mxGeometry width="50" height="50" relative="1" as="geometry">
            <mxPoint x="680" y="460" as="sourcePoint" />
            <mxPoint x="581.96" y="311.98" as="targetPoint" />
          </mxGeometry>
        </mxCell>
        <mxCell id="BtNnuzzpziHM5bAmL9q4-10" value="float" style="rounded=0;whiteSpace=wrap;html=1;" vertex="1" parent="1">
          <mxGeometry x="370" y="470" width="120" height="60" as="geometry" />
        </mxCell>
        <mxCell id="BtNnuzzpziHM5bAmL9q4-11" value="login" style="rounded=0;whiteSpace=wrap;html=1;" vertex="1" parent="1">
          <mxGeometry x="470" y="250" width="120" height="60" as="geometry" />
        </mxCell>
      </root>
    </mxGraphModel>
  </diagram>
</mxfile>
